<svg width="956" height="311" viewBox="0 0 956 311" fill="none" xmlns="http://www.w3.org/2000/svg">
<mask id="path-1-inside-1_2003_263" fill="white">
<path d="M113.858 184.469L103.259 190.356L122.721 201.593L67.9873 233.993L13.2686 201.6L33.7021 189.803L24.0527 184.231L24.6934 183.123L0 197.379V272.25L67.1172 311L134.234 272.25V196.232L113.858 184.469ZM68 302L10.8428 269L10.8428 212.461L67.5 246L125.157 211.869L125.157 269L68 302Z"/>
</mask>
<path d="M113.858 184.469L103.259 190.356L122.721 201.593L67.9873 233.993L13.2686 201.6L33.7021 189.803L24.0527 184.231L24.6934 183.123L0 197.379V272.25L67.1172 311L134.234 272.25V196.232L113.858 184.469ZM68 302L10.8428 269L10.8428 212.461L67.5 246L125.157 211.869L125.157 269L68 302Z" fill="url(#paint0_linear_2003_263)"/>
<path d="M113.858 184.469L112.887 182.72L113.877 182.17L114.858 182.737L113.858 184.469ZM103.259 190.356L102.259 192.088L99.2005 190.323L102.288 188.608L103.259 190.356ZM122.721 201.593L123.721 199.861L126.683 201.571L123.74 203.314L122.721 201.593ZM67.9873 233.993L69.0061 235.714L67.9873 236.317L66.9685 235.714L67.9873 233.993ZM13.2686 201.6L12.2497 203.321L9.30597 201.578L12.2686 199.868L13.2686 201.6ZM33.7021 189.803L34.7022 188.071L37.7022 189.803L34.7021 191.535L33.7021 189.803ZM24.0527 184.231L23.0527 185.963L21.3199 184.963L22.3212 183.231L24.0527 184.231ZM24.6934 183.123L23.6934 181.391L30.1633 177.656L26.4249 184.124L24.6934 183.123ZM0 197.379H-2V196.224L-0.999955 195.647L0 197.379ZM0 272.25L-0.999998 273.982L-2 273.405V272.25H0ZM67.1172 311L68.1172 312.732L67.1172 313.309L66.1172 312.732L67.1172 311ZM134.234 272.25H136.234V273.405L135.234 273.982L134.234 272.25ZM134.234 196.232L135.234 194.5L136.234 195.078V196.232H134.234ZM68 302L69 303.732L68 304.309L67 303.732L68 302ZM10.8428 269L9.84277 270.732L8.84277 270.155V269H10.8428ZM10.8428 212.461H8.84277V208.953L11.8616 210.74L10.8428 212.461ZM67.5 246L68.5188 247.721L67.5 248.324L66.4812 247.721L67.5 246ZM125.157 211.869L124.138 210.148L127.157 208.361V211.869H125.157ZM125.157 269H127.157V270.155L126.157 270.732L125.157 269ZM113.858 184.469L114.83 186.217L104.23 192.105L103.259 190.356L102.288 188.608L112.887 182.72L113.858 184.469ZM103.259 190.356L104.259 188.624L123.721 199.861L122.721 201.593L121.721 203.325L102.259 192.088L103.259 190.356ZM122.721 201.593L123.74 203.314L69.0061 235.714L67.9873 233.993L66.9685 232.272L121.702 199.872L122.721 201.593ZM67.9873 233.993L66.9685 235.714L12.2497 203.321L13.2686 201.6L14.2874 199.879L69.0062 232.272L67.9873 233.993ZM13.2686 201.6L12.2686 199.868L32.7022 188.071L33.7021 189.803L34.7021 191.535L14.2685 203.332L13.2686 201.6ZM33.7021 189.803L32.7021 191.535L23.0527 185.963L24.0527 184.231L25.0528 182.499L34.7022 188.071L33.7021 189.803ZM24.0527 184.231L22.3212 183.231L22.9618 182.122L24.6934 183.123L26.4249 184.124L25.7843 185.232L24.0527 184.231ZM24.6934 183.123L25.6933 184.855L0.999955 199.111L0 197.379L-0.999955 195.647L23.6934 181.391L24.6934 183.123ZM0 197.379H2V272.25H0H-2V197.379H0ZM0 272.25L0.999998 270.518L68.1172 309.268L67.1172 311L66.1172 312.732L-0.999998 273.982L0 272.25ZM67.1172 311L66.1172 309.268L133.234 270.518L134.234 272.25L135.234 273.982L68.1172 312.732L67.1172 311ZM134.234 272.25H132.234V196.232H134.234H136.234V272.25H134.234ZM134.234 196.232L133.234 197.964L112.858 186.201L113.858 184.469L114.858 182.737L135.234 194.5L134.234 196.232ZM68 302L67 303.732L9.84277 270.732L10.8428 269L11.8428 267.268L69 300.268L68 302ZM10.8428 269H8.84277L8.84277 212.461H10.8428H12.8428L12.8428 269H10.8428ZM10.8428 212.461L11.8616 210.74L68.5188 244.279L67.5 246L66.4812 247.721L9.82397 214.182L10.8428 212.461ZM67.5 246L66.4812 244.279L124.138 210.148L125.157 211.869L126.176 213.59L68.5188 247.721L67.5 246ZM125.157 211.869H127.157L127.157 269H125.157H123.157L123.157 211.869H125.157ZM125.157 269L126.157 270.732L69 303.732L68 302L67 300.268L124.157 267.268L125.157 269Z" fill="url(#paint1_linear_2003_263)" mask="url(#path-1-inside-1_2003_263)"/>
<mask id="path-3-inside-2_2003_263" fill="white">
<path d="M1.71887e-06 104.379L4.99159e-06 179.25L67.1172 218L134.234 179.25L134.234 103.232L68.1113 65.0557L1.71887e-06 104.379ZM125.157 176L68 209L10.8428 176L10.8428 119.461L67.5 153L125.157 118.869L125.157 176ZM122.721 108.593L67.9873 140.993L13.2686 108.6L68 77L122.721 108.593Z"/>
</mask>
<path d="M1.71887e-06 104.379L4.99159e-06 179.25L67.1172 218L134.234 179.25L134.234 103.232L68.1113 65.0557L1.71887e-06 104.379ZM125.157 176L68 209L10.8428 176L10.8428 119.461L67.5 153L125.157 118.869L125.157 176ZM122.721 108.593L67.9873 140.993L13.2686 108.6L68 77L122.721 108.593Z" fill="url(#paint2_linear_2003_263)"/>
<path d="M1.71887e-06 104.379L-2 104.379L-2 103.224L-0.999982 102.647L1.71887e-06 104.379ZM4.99159e-06 179.25L-0.999992 180.982L-1.99999 180.405L-2 179.25L4.99159e-06 179.25ZM67.1172 218L68.1172 219.732L67.1172 220.309L66.1172 219.732L67.1172 218ZM134.234 179.25L136.234 179.25L136.234 180.405L135.234 180.982L134.234 179.25ZM134.234 103.232L135.234 101.5L136.234 102.078L136.234 103.232L134.234 103.232ZM68.1113 65.0557L67.1113 63.3236L68.1113 62.7463L69.1113 63.3236L68.1113 65.0557ZM125.157 176L127.157 176L127.157 177.155L126.157 177.732L125.157 176ZM68 209L69 210.732L68 211.309L67 210.732L68 209ZM10.8428 176L9.84277 177.732L8.84278 177.155L8.84278 176L10.8428 176ZM10.8428 119.461L8.84278 119.461L8.84278 115.953L11.8616 117.74L10.8428 119.461ZM67.5 153L68.5188 154.721L67.5 155.324L66.4812 154.721L67.5 153ZM125.157 118.869L124.138 117.148L127.157 115.361L127.157 118.869L125.157 118.869ZM122.721 108.593L123.721 106.861L126.683 108.571L123.74 110.314L122.721 108.593ZM67.9873 140.993L69.0061 142.714L67.9873 143.317L66.9685 142.714L67.9873 140.993ZM13.2686 108.6L12.2497 110.321L9.30604 108.578L12.2685 106.868L13.2686 108.6ZM68 77L67 75.268L68 74.6906L69 75.2679L68 77ZM1.71887e-06 104.379L2 104.379L2 179.25L4.99159e-06 179.25L-2 179.25L-2 104.379L1.71887e-06 104.379ZM4.99159e-06 179.25L1 177.518L68.1172 216.268L67.1172 218L66.1172 219.732L-0.999992 180.982L4.99159e-06 179.25ZM67.1172 218L66.1172 216.268L133.234 177.518L134.234 179.25L135.234 180.982L68.1172 219.732L67.1172 218ZM134.234 179.25L132.234 179.25L132.234 103.232L134.234 103.232L136.234 103.232L136.234 179.25L134.234 179.25ZM134.234 103.232L133.234 104.964L67.1113 66.7877L68.1113 65.0557L69.1113 63.3236L135.234 101.5L134.234 103.232ZM68.1113 65.0557L69.1113 66.7877L0.999986 106.111L1.71887e-06 104.379L-0.999982 102.647L67.1113 63.3236L68.1113 65.0557ZM125.157 176L126.157 177.732L69 210.732L68 209L67 207.268L124.157 174.268L125.157 176ZM68 209L67 210.732L9.84277 177.732L10.8428 176L11.8428 174.268L69 207.268L68 209ZM10.8428 176L8.84278 176L8.84278 119.461L10.8428 119.461L12.8428 119.461L12.8428 176L10.8428 176ZM10.8428 119.461L11.8616 117.74L68.5188 151.279L67.5 153L66.4812 154.721L9.82397 121.182L10.8428 119.461ZM67.5 153L66.4812 151.279L124.138 117.148L125.157 118.869L126.176 120.59L68.5188 154.721L67.5 153ZM125.157 118.869L127.157 118.869L127.157 176L125.157 176L123.157 176L123.157 118.869L125.157 118.869ZM122.721 108.593L123.74 110.314L69.0061 142.714L67.9873 140.993L66.9685 139.272L121.702 106.872L122.721 108.593ZM67.9873 140.993L66.9685 142.714L12.2497 110.321L13.2686 108.6L14.2874 106.879L69.0062 139.272L67.9873 140.993ZM13.2686 108.6L12.2685 106.868L67 75.268L68 77L69 78.732L14.2686 110.332L13.2686 108.6ZM68 77L69 75.2679L123.721 106.861L122.721 108.593L121.721 110.325L67 78.7321L68 77Z" fill="url(#paint3_linear_2003_263)" mask="url(#path-3-inside-2_2003_263)"/>
<path d="M33.6172 14.2793C33.617 12.3465 32.0501 10.7793 30.1172 10.7793C28.1843 10.7793 26.6174 12.3465 26.6172 14.2793L26.6172 107.969C26.6172 109.902 28.1842 111.469 30.1172 111.469C32.0502 111.469 33.6172 109.902 33.6172 107.969L33.6172 14.2793ZM46.6172 36.8223C46.6172 34.8893 45.0502 33.3223 43.1172 33.3223C41.1842 33.3223 39.6172 34.8893 39.6172 36.8223L39.6172 112.478C39.6173 114.41 41.1842 115.978 43.1172 115.978C45.0501 115.978 46.6171 114.41 46.6172 112.478L46.6172 36.8223ZM59.6172 58.6074C59.6172 56.6744 58.0502 55.1074 56.1172 55.1074C54.1842 55.1074 52.6172 56.6744 52.6172 58.6074L52.6172 121.488C52.6172 123.421 54.1842 124.988 56.1172 124.988C58.0502 124.988 59.6172 123.421 59.6172 121.488L59.6172 58.6074ZM72.6172 3.5C72.6172 1.567 71.0502 0 69.1172 0C67.1842 0 65.6172 1.567 65.6172 3.5L65.6172 129.5C65.6172 131.433 67.1842 133 69.1172 133C71.0502 133 72.6172 131.433 72.6172 129.5L72.6172 3.5ZM85.6172 27.7998C85.6172 25.8668 84.0502 24.2998 82.1172 24.2998C80.1842 24.2998 78.6172 25.8668 78.6172 27.7998L78.6172 121.488C78.6172 123.421 80.1842 124.988 82.1172 124.988C84.0502 124.988 85.6172 123.421 85.6172 121.488L85.6172 27.7998ZM98.6172 61.9805C98.6172 60.0475 97.0502 58.4805 95.1172 58.4805C93.1842 58.4805 91.6172 60.0475 91.6172 61.9805V113.98C91.6173 115.913 93.1843 117.48 95.1172 117.48C97.0501 117.48 98.6171 115.913 98.6172 113.98L98.6172 61.9805ZM111.617 33.0654C111.617 31.1324 110.05 29.5654 108.117 29.5654C106.184 29.5654 104.617 31.1324 104.617 33.0654L104.617 107.969C104.617 109.902 106.184 111.469 108.117 111.469C110.05 111.469 111.617 109.902 111.617 107.969L111.617 33.0654Z" fill="url(#paint4_linear_2003_263)"/>
<path d="M329.661 181.724C359.077 181.724 382.923 205.291 382.923 234.362C382.923 263.433 359.077 287 329.661 287C300.245 287 276.4 263.433 276.399 234.362C276.399 205.291 300.245 181.724 329.661 181.724ZM693.775 193.278C700.346 193.278 705.807 194.09 710.159 195.711C714.511 197.332 718.565 199.679 722.319 202.751V220.671C720.271 218.282 717.839 216.148 715.023 214.271C712.293 212.308 709.22 210.772 705.807 209.663C702.393 208.554 698.554 207.999 694.287 207.999C688.826 207.999 683.748 209.321 679.055 211.967C674.447 214.527 670.692 218.196 667.791 222.975C664.975 227.668 663.567 233.214 663.567 239.614C663.567 245.929 664.975 251.476 667.791 256.255C670.692 261.033 674.447 264.745 679.055 267.391C683.748 269.951 688.826 271.23 694.287 271.23C698.554 271.23 702.393 270.676 705.807 269.566C709.22 268.457 712.293 266.964 715.023 265.087C717.839 263.124 720.271 260.948 722.319 258.559V276.479C718.565 279.55 714.511 281.897 710.159 283.519C705.807 285.14 700.346 285.95 693.775 285.95C687.205 285.95 681.06 284.842 675.343 282.623C669.711 280.404 664.804 277.204 660.623 273.022C656.442 268.841 653.157 263.935 650.768 258.303C648.464 252.585 647.312 246.356 647.312 239.614C647.312 232.873 648.464 226.687 650.768 221.055C653.157 215.338 656.442 210.388 660.623 206.207C664.804 202.026 669.711 198.825 675.343 196.606C681.06 194.388 687.205 193.278 693.775 193.278ZM180.799 182.101L245.799 109.415H281.299L207.549 191.415L285.049 284.415H248.799L180.799 202.947V284.415H150.549V109.415H180.799V182.101ZM488.237 284.415H472.621L466.349 229.887L439.085 276.095L411.821 229.887L405.677 284.415H390.062L402.349 190.335L439.085 251.135L475.949 190.335L488.237 284.415ZM529.939 194.814C536.425 194.814 542.056 195.967 546.835 198.271C551.699 200.489 555.453 203.69 558.099 207.871C560.744 211.967 562.067 216.874 562.067 222.591C562.067 228.308 560.744 233.257 558.099 237.438C555.453 241.62 551.699 244.863 546.835 247.167C542.056 249.386 536.425 250.495 529.939 250.495H518.035V284.415H502.931V194.814H529.939ZM645.883 284.415H628.859L618.583 261.375H585.561L575.355 284.415H558.331L602.107 189.822L645.883 284.415ZM798.24 208.767H774.561V284.415H759.328V208.767H735.776V194.814H798.24V208.767ZM863.764 194.814V208.127H824.084V229.887H861.204V242.942H824.084V271.103H863.764V284.415H809.236V194.814H863.764ZM907.449 194.814C916.58 194.814 924.601 196.692 931.513 200.446C938.425 204.116 943.802 209.321 947.642 216.062C951.567 222.718 953.529 230.569 953.529 239.614C953.529 248.66 951.567 256.554 947.642 263.295C943.802 269.951 938.425 275.156 931.513 278.911C924.601 282.58 916.58 284.415 907.449 284.415H878.521V194.814H907.449ZM893.881 270.207H907.065C911.503 270.207 915.599 269.567 919.354 268.287C923.108 267.007 926.35 265.086 929.081 262.526C931.897 259.966 934.073 256.767 935.609 252.927C937.231 249.087 938.041 244.649 938.041 239.614C938.041 234.58 937.231 230.143 935.609 226.303C934.073 222.463 931.897 219.263 929.081 216.703C926.35 214.143 923.108 212.222 919.354 210.942C915.599 209.662 911.503 209.022 907.065 209.022H893.881V270.207ZM589.945 248.574H614.239L602.107 220.158L589.945 248.574ZM518.035 237.183H529.939C535.145 237.183 539.326 235.945 542.483 233.471C545.641 230.996 547.219 227.369 547.219 222.591C547.219 217.812 545.641 214.228 542.483 211.839C539.326 209.364 535.145 208.127 529.939 208.127H518.035V237.183Z" fill="url(#paint5_linear_2003_263)"/>
<path d="M329.661 181.724L329.661 179.724H329.661V181.724ZM382.923 234.362L384.923 234.362V234.362H382.923ZM329.661 287L329.661 289L329.661 289L329.661 287ZM276.399 234.362L274.399 234.362L274.399 234.362L276.399 234.362ZM693.775 193.278L693.775 191.278H693.775V193.278ZM710.159 195.711L710.857 193.837L710.857 193.837L710.159 195.711ZM722.319 202.751H724.319V201.803L723.586 201.203L722.319 202.751ZM722.319 220.671L720.801 221.972L724.319 226.077V220.671H722.319ZM715.023 214.271L713.856 215.895L713.885 215.915L713.914 215.935L715.023 214.271ZM705.807 209.663L706.425 207.761L706.425 207.761L705.807 209.663ZM694.287 207.999L694.287 205.999L694.287 205.999L694.287 207.999ZM679.055 211.967L680.026 213.715L680.037 213.709L679.055 211.967ZM667.791 222.975L666.081 221.937L666.076 221.946L667.791 222.975ZM663.567 239.614L661.567 239.614V239.614H663.567ZM667.791 256.255L666.068 257.27L666.075 257.282L666.081 257.293L667.791 256.255ZM679.055 267.391L678.059 269.125L678.078 269.136L678.097 269.146L679.055 267.391ZM694.287 271.23L694.287 273.23H694.287V271.23ZM705.807 269.566L706.425 271.468L706.425 271.468L705.807 269.566ZM715.023 265.087L716.157 266.735L716.167 266.728L715.023 265.087ZM722.319 258.559H724.319V253.152L720.801 257.257L722.319 258.559ZM722.319 276.479L723.586 278.026L724.319 277.426V276.479H722.319ZM710.159 283.519L710.857 285.393L710.857 285.393L710.159 283.519ZM693.775 285.95L693.775 287.95L693.775 287.95L693.775 285.95ZM675.343 282.623L674.61 284.484L674.619 284.488L675.343 282.623ZM660.623 273.022L659.209 274.437L659.209 274.437L660.623 273.022ZM650.768 258.303L648.913 259.05L648.919 259.067L648.926 259.084L650.768 258.303ZM647.312 239.614L645.312 239.614V239.614H647.312ZM650.768 221.055L648.922 220.283L648.919 220.29L648.916 220.297L650.768 221.055ZM660.623 206.207L659.209 204.793L659.209 204.793L660.623 206.207ZM675.343 196.606L674.619 194.742L674.61 194.746L675.343 196.606ZM180.799 182.101H178.799V187.337L182.29 183.434L180.799 182.101ZM245.799 109.415V107.415H244.904L244.308 108.082L245.799 109.415ZM281.299 109.415L282.786 110.752L285.788 107.415H281.299V109.415ZM207.549 191.415L206.062 190.078L204.904 191.365L206.012 192.695L207.549 191.415ZM285.049 284.415V286.415H289.319L286.585 283.135L285.049 284.415ZM248.799 284.415L247.263 285.697L247.863 286.415H248.799V284.415ZM180.799 202.947L182.334 201.666L178.799 197.43V202.947H180.799ZM180.799 284.415V286.415H182.799V284.415H180.799ZM150.549 284.415H148.549V286.415H150.549V284.415ZM150.549 109.415V107.415H148.549V109.415H150.549ZM180.799 109.415H182.799V107.415H180.799V109.415ZM488.237 284.415V286.415H490.516L490.22 284.156L488.237 284.415ZM472.621 284.415L470.634 284.644L470.838 286.415H472.621V284.415ZM466.349 229.887L468.336 229.658L467.654 223.738L464.626 228.87L466.349 229.887ZM439.085 276.095L437.362 277.111L439.085 280.03L440.807 277.111L439.085 276.095ZM411.821 229.887L413.544 228.87L410.504 223.718L409.834 229.663L411.821 229.887ZM405.677 284.415V286.415H407.464L407.664 284.639L405.677 284.415ZM390.062 284.415L388.078 284.156L387.783 286.415H390.062V284.415ZM402.349 190.335L404.06 189.301L401.105 184.41L400.365 190.076L402.349 190.335ZM439.085 251.135L437.373 252.169L439.082 254.997L440.795 252.172L439.085 251.135ZM475.949 190.335L477.932 190.076L477.194 184.424L474.239 189.298L475.949 190.335ZM529.939 194.814L529.939 192.814H529.939V194.814ZM546.835 198.271L545.966 200.072L545.986 200.081L546.005 200.09L546.835 198.271ZM558.099 207.871L556.408 208.94L556.413 208.948L556.419 208.956L558.099 207.871ZM562.067 222.591L564.067 222.591V222.591H562.067ZM558.099 237.438L559.789 238.508L559.789 238.508L558.099 237.438ZM546.835 247.167L547.677 248.981L547.684 248.978L547.691 248.974L546.835 247.167ZM529.939 250.495L529.939 252.495L529.939 252.495L529.939 250.495ZM518.035 250.495V248.495H516.035V250.495H518.035ZM518.035 284.415V286.415H520.035V284.415H518.035ZM502.931 284.415H500.931V286.415H502.931V284.415ZM502.931 194.814V192.814H500.931V194.814H502.931ZM645.883 284.415V286.415H649.012L647.698 283.575L645.883 284.415ZM628.859 284.415L627.033 285.23L627.562 286.415H628.859V284.415ZM618.583 261.375L620.41 260.56L619.881 259.375H618.583V261.375ZM585.561 261.375V259.375H584.259L583.732 260.565L585.561 261.375ZM575.355 284.415V286.415H576.657L577.184 285.225L575.355 284.415ZM558.331 284.415L556.516 283.575L555.202 286.415H558.331V284.415ZM602.107 189.822L603.922 188.982L602.107 185.06L600.292 188.982L602.107 189.822ZM798.24 208.767V210.767H800.24V208.767H798.24ZM774.561 208.767V206.767H772.561V208.767H774.561ZM774.561 284.415V286.415H776.561V284.415H774.561ZM759.328 284.415H757.328V286.415H759.328V284.415ZM759.328 208.767H761.328V206.767H759.328V208.767ZM735.776 208.767H733.776V210.767H735.776V208.767ZM735.776 194.814V192.814H733.776V194.814H735.776ZM798.24 194.814H800.24V192.814H798.24V194.814ZM863.764 194.814H865.764V192.814H863.764V194.814ZM863.764 208.127V210.127H865.764V208.127H863.764ZM824.084 208.127V206.127H822.084V208.127H824.084ZM824.084 229.887H822.084V231.887H824.084V229.887ZM861.204 229.887H863.204V227.887H861.204V229.887ZM861.204 242.942V244.942H863.204V242.942H861.204ZM824.084 242.942V240.942H822.084V242.942H824.084ZM824.084 271.103H822.084V273.103H824.084V271.103ZM863.764 271.103H865.764V269.103H863.764V271.103ZM863.764 284.415V286.415H865.764V284.415H863.764ZM809.236 284.415H807.236V286.415H809.236V284.415ZM809.236 194.814V192.814H807.236V194.814H809.236ZM907.449 194.814L907.449 192.814H907.449V194.814ZM931.513 200.446L930.558 202.204L930.566 202.208L930.575 202.213L931.513 200.446ZM947.642 216.062L945.904 217.052L945.911 217.065L945.919 217.078L947.642 216.062ZM953.529 239.614L955.529 239.614L955.529 239.614L953.529 239.614ZM947.642 263.295L945.913 262.289L945.909 262.295L947.642 263.295ZM931.513 278.911L932.45 280.678L932.459 280.673L932.467 280.669L931.513 278.911ZM907.449 284.415L907.449 286.415L907.449 286.415L907.449 284.415ZM878.521 284.415H876.521V286.415H878.521V284.415ZM878.521 194.814V192.814H876.521V194.814H878.521ZM893.881 270.207H891.881V272.207H893.881V270.207ZM907.065 270.207L907.065 272.207L907.065 272.207L907.065 270.207ZM919.354 268.287L919.999 270.18L919.999 270.18L919.354 268.287ZM929.081 262.526L927.736 261.046L927.724 261.057L927.713 261.067L929.081 262.526ZM935.609 252.927L933.767 252.149L933.759 252.166L933.752 252.184L935.609 252.927ZM938.041 239.614L940.041 239.614L940.041 239.614L938.041 239.614ZM935.609 226.303L933.752 227.046L933.759 227.063L933.767 227.081L935.609 226.303ZM929.081 216.703L927.713 218.162L927.724 218.173L927.736 218.183L929.081 216.703ZM919.354 210.942L919.999 209.049L919.999 209.049L919.354 210.942ZM907.065 209.022L907.065 207.022H907.065V209.022ZM893.881 209.022V207.022H891.881V209.022H893.881ZM589.945 248.574L588.107 247.787L586.914 250.574H589.945V248.574ZM614.239 248.574V250.574H617.268L616.079 247.789L614.239 248.574ZM602.107 220.158L603.947 219.373L602.11 215.07L600.269 219.371L602.107 220.158ZM518.035 237.183H516.035V239.183H518.035V237.183ZM529.939 237.183L529.939 239.183L529.939 239.183L529.939 237.183ZM542.483 233.471L543.717 235.045L543.717 235.045L542.483 233.471ZM547.219 222.591L549.219 222.591V222.591H547.219ZM542.483 211.839L541.25 213.413L541.263 213.423L541.276 213.434L542.483 211.839ZM529.939 208.127L529.939 206.127H529.939V208.127ZM518.035 208.127V206.127H516.035V208.127H518.035ZM329.661 181.724L329.661 183.724C357.995 183.724 380.923 206.418 380.923 234.362H382.923H384.923C384.923 204.164 360.159 179.724 329.661 179.724L329.661 181.724ZM382.923 234.362L380.923 234.362C380.923 262.307 357.994 285 329.661 285L329.661 287L329.661 289C360.159 289 384.923 264.56 384.923 234.362L382.923 234.362ZM329.661 287V285C301.328 285 278.4 262.307 278.399 234.362L276.399 234.362L274.399 234.362C274.4 264.56 299.163 289 329.661 289V287ZM276.399 234.362H278.399C278.399 206.418 301.328 183.724 329.661 183.724V181.724V179.724C299.163 179.724 274.399 204.164 274.399 234.362H276.399ZM693.775 193.278L693.775 195.278C700.198 195.278 705.404 196.074 709.461 197.585L710.159 195.711L710.857 193.837C706.21 192.106 700.493 191.278 693.775 191.278L693.775 193.278ZM710.159 195.711L709.461 197.585C713.598 199.126 717.461 201.36 721.053 204.299L722.319 202.751L723.586 201.203C719.669 197.998 715.424 195.538 710.857 193.837L710.159 195.711ZM722.319 202.751H720.319V220.671H722.319H724.319V202.751H722.319ZM722.319 220.671L723.838 219.369C721.662 216.831 719.09 214.578 716.133 212.606L715.023 214.271L713.914 215.935C716.589 217.718 718.881 219.732 720.801 221.972L722.319 220.671ZM715.023 214.271L716.191 212.646C713.281 210.555 710.021 208.93 706.425 207.761L705.807 209.663L705.188 211.565C708.419 212.615 711.304 214.06 713.856 215.895L715.023 214.271ZM705.807 209.663L706.425 207.761C702.778 206.576 698.725 205.999 694.287 205.999V207.999V209.999C698.382 209.999 702.008 210.532 705.188 211.565L705.807 209.663ZM694.287 207.999L694.287 205.999C688.487 205.999 683.07 207.408 678.073 210.224L679.055 211.967L680.037 213.709C684.426 211.235 689.165 209.999 694.287 209.999L694.287 207.999ZM679.055 211.967L678.083 210.218C673.153 212.957 669.152 216.88 666.081 221.937L667.791 222.975L669.501 224.013C672.233 219.512 675.74 216.096 680.026 213.715L679.055 211.967ZM667.791 222.975L666.076 221.946C663.044 226.999 661.567 232.914 661.567 239.614L663.567 239.614L665.567 239.614C665.567 233.515 666.906 228.337 669.506 224.004L667.791 222.975ZM663.567 239.614H661.567C661.567 246.236 663.047 252.143 666.068 257.27L667.791 256.255L669.514 255.239C666.903 250.809 665.567 245.622 665.567 239.614H663.567ZM667.791 256.255L666.081 257.293C669.149 262.344 673.143 266.303 678.059 269.125L679.055 267.391L680.05 265.656C675.751 263.188 672.236 259.722 669.501 255.217L667.791 256.255ZM679.055 267.391L678.097 269.146C683.091 271.87 688.499 273.23 694.287 273.23L694.287 271.23L694.287 269.23C689.153 269.23 684.405 268.031 680.012 265.635L679.055 267.391ZM694.287 271.23V273.23C698.725 273.23 702.778 272.654 706.425 271.468L705.807 269.566L705.188 267.664C702.008 268.698 698.382 269.23 694.287 269.23V271.23ZM705.807 269.566L706.425 271.468C710.006 270.305 713.254 268.73 716.156 266.735L715.023 265.087L713.89 263.439C711.331 265.198 708.434 266.609 705.188 267.664L705.807 269.566ZM715.023 265.087L716.167 266.728C719.109 264.677 721.67 262.389 723.838 259.86L722.319 258.559L720.801 257.257C718.872 259.507 716.569 261.572 713.88 263.446L715.023 265.087ZM722.319 258.559H720.319V276.479H722.319H724.319V258.559H722.319ZM722.319 276.479L721.053 274.931C717.461 277.87 713.598 280.103 709.461 281.644L710.159 283.519L710.857 285.393C715.424 283.691 719.669 281.231 723.586 278.026L722.319 276.479ZM710.159 283.519L709.461 281.644C705.404 283.156 700.199 283.95 693.775 283.95L693.775 285.95L693.775 287.95C700.493 287.95 706.21 287.124 710.857 285.393L710.159 283.519ZM693.775 285.95V283.95C687.434 283.95 681.537 282.881 676.066 280.759L675.343 282.623L674.619 284.488C680.584 286.802 686.975 287.95 693.775 287.95V285.95ZM675.343 282.623L676.076 280.762C670.693 278.642 666.02 275.591 662.037 271.608L660.623 273.022L659.209 274.437C663.589 278.817 668.729 282.167 674.61 284.484L675.343 282.623ZM660.623 273.022L662.037 271.608C658.044 267.615 654.901 262.925 652.609 257.522L650.768 258.303L648.926 259.084C651.412 264.944 654.84 270.067 659.209 274.437L660.623 273.022ZM650.768 258.303L652.623 257.555C650.423 252.097 649.312 246.124 649.312 239.614H647.312H645.312C645.312 246.588 646.504 253.074 648.913 259.05L650.768 258.303ZM647.312 239.614L649.312 239.614C649.312 233.105 650.423 227.179 652.619 221.812L650.768 221.055L648.916 220.297C646.504 226.194 645.312 232.641 645.312 239.614L647.312 239.614ZM650.768 221.055L652.613 221.826C654.907 216.337 658.049 211.609 662.037 207.621L660.623 206.207L659.209 204.793C654.835 209.167 651.407 214.338 648.922 220.283L650.768 221.055ZM660.623 206.207L662.037 207.621C666.02 203.639 670.693 200.588 676.076 198.467L675.343 196.606L674.61 194.746C668.729 197.062 663.589 200.413 659.209 204.793L660.623 206.207ZM675.343 196.606L676.066 198.471C681.537 196.348 687.434 195.278 693.775 195.278V193.278V191.278C686.975 191.278 680.583 192.427 674.619 194.742L675.343 196.606ZM180.799 182.101L182.29 183.434L247.29 110.748L245.799 109.415L244.308 108.082L179.308 180.767L180.799 182.101ZM245.799 109.415V111.415H281.299V109.415V107.415H245.799V109.415ZM281.299 109.415L279.812 108.078L206.062 190.078L207.549 191.415L209.036 192.752L282.786 110.752L281.299 109.415ZM207.549 191.415L206.012 192.695L283.512 285.695L285.049 284.415L286.585 283.135L209.085 190.135L207.549 191.415ZM285.049 284.415V282.415H248.799V284.415V286.415H285.049V284.415ZM248.799 284.415L250.334 283.133L182.334 201.666L180.799 202.947L179.263 204.229L247.263 285.697L248.799 284.415ZM180.799 202.947H178.799V284.415H180.799H182.799V202.947H180.799ZM180.799 284.415V282.415H150.549V284.415V286.415H180.799V284.415ZM150.549 284.415H152.549V109.415H150.549H148.549V284.415H150.549ZM150.549 109.415V111.415H180.799V109.415V107.415H150.549V109.415ZM180.799 109.415H178.799V182.101H180.799H182.799V109.415H180.799ZM488.237 284.415V282.415H472.621V284.415V286.415H488.237V284.415ZM472.621 284.415L474.608 284.186L468.336 229.658L466.349 229.887L464.362 230.115L470.634 284.644L472.621 284.415ZM466.349 229.887L464.626 228.87L437.362 275.078L439.085 276.095L440.807 277.111L468.071 230.903L466.349 229.887ZM439.085 276.095L440.807 275.078L413.544 228.87L411.821 229.887L410.099 230.903L437.362 277.111L439.085 276.095ZM411.821 229.887L409.834 229.663L403.689 284.191L405.677 284.415L407.664 284.639L413.809 230.111L411.821 229.887ZM405.677 284.415V282.415H390.062V284.415V286.415H405.677V284.415ZM390.062 284.415L392.045 284.674L404.332 190.594L402.349 190.335L400.365 190.076L388.078 284.156L390.062 284.415ZM402.349 190.335L400.637 191.369L437.373 252.169L439.085 251.135L440.797 250.1L404.06 189.301L402.349 190.335ZM439.085 251.135L440.795 252.172L477.659 191.372L475.949 190.335L474.239 189.298L437.375 250.098L439.085 251.135ZM475.949 190.335L473.966 190.594L486.254 284.674L488.237 284.415L490.22 284.156L477.932 190.076L475.949 190.335ZM529.939 194.814L529.939 196.814C536.189 196.814 541.512 197.925 545.966 200.072L546.835 198.271L547.704 196.469C542.601 194.009 536.66 192.814 529.939 192.814L529.939 194.814ZM546.835 198.271L546.005 200.09C550.545 202.161 553.988 205.114 556.408 208.94L558.099 207.871L559.789 206.802C556.919 202.266 552.853 198.817 547.665 196.451L546.835 198.271ZM558.099 207.871L556.419 208.956C558.821 212.676 560.067 217.191 560.067 222.591H562.067H564.067C564.067 216.556 562.667 211.258 559.779 206.786L558.099 207.871ZM562.067 222.591L560.067 222.591C560.067 227.989 558.822 232.555 556.408 236.369L558.099 237.438L559.789 238.508C562.666 233.959 564.067 228.627 564.067 222.591L562.067 222.591ZM558.099 237.438L556.408 236.369C553.983 240.203 550.532 243.203 545.979 245.36L546.835 247.167L547.691 248.974C552.866 246.523 556.923 243.037 559.789 238.508L558.099 237.438ZM546.835 247.167L545.993 245.353C541.532 247.424 536.199 248.495 529.939 248.495L529.939 250.495L529.939 252.495C536.65 252.495 542.581 251.347 547.677 248.981L546.835 247.167ZM529.939 250.495V248.495H518.035V250.495V252.495H529.939V250.495ZM518.035 250.495H516.035V284.415H518.035H520.035V250.495H518.035ZM518.035 284.415V282.415H502.931V284.415V286.415H518.035V284.415ZM502.931 284.415H504.931V194.814H502.931H500.931V284.415H502.931ZM502.931 194.814V196.814H529.939V194.814V192.814H502.931V194.814ZM645.883 284.415V282.415H628.859V284.415V286.415H645.883V284.415ZM628.859 284.415L630.686 283.6L620.41 260.56L618.583 261.375L616.756 262.19L627.033 285.23L628.859 284.415ZM618.583 261.375V259.375H585.561V261.375V263.375H618.583V261.375ZM585.561 261.375L583.732 260.565L573.527 283.605L575.355 284.415L577.184 285.225L587.389 262.185L585.561 261.375ZM575.355 284.415V282.415H558.331V284.415V286.415H575.355V284.415ZM558.331 284.415L560.146 285.255L603.922 190.662L602.107 189.822L600.292 188.982L556.516 283.575L558.331 284.415ZM602.107 189.822L600.292 190.662L644.068 285.255L645.883 284.415L647.698 283.575L603.922 188.982L602.107 189.822ZM798.24 208.767V206.767H774.561V208.767V210.767H798.24V208.767ZM774.561 208.767H772.561V284.415H774.561H776.561V208.767H774.561ZM774.561 284.415V282.415H759.328V284.415V286.415H774.561V284.415ZM759.328 284.415H761.328V208.767H759.328H757.328V284.415H759.328ZM759.328 208.767V206.767H735.776V208.767V210.767H759.328V208.767ZM735.776 208.767H737.776V194.814H735.776H733.776V208.767H735.776ZM735.776 194.814V196.814H798.24V194.814V192.814H735.776V194.814ZM798.24 194.814H796.24V208.767H798.24H800.24V194.814H798.24ZM863.764 194.814H861.764V208.127H863.764H865.764V194.814H863.764ZM863.764 208.127V206.127H824.084V208.127V210.127H863.764V208.127ZM824.084 208.127H822.084V229.887H824.084H826.084V208.127H824.084ZM824.084 229.887V231.887H861.204V229.887V227.887H824.084V229.887ZM861.204 229.887H859.204V242.942H861.204H863.204V229.887H861.204ZM861.204 242.942V240.942H824.084V242.942V244.942H861.204V242.942ZM824.084 242.942H822.084V271.103H824.084H826.084V242.942H824.084ZM824.084 271.103V273.103H863.764V271.103V269.103H824.084V271.103ZM863.764 271.103H861.764V284.415H863.764H865.764V271.103H863.764ZM863.764 284.415V282.415H809.236V284.415V286.415H863.764V284.415ZM809.236 284.415H811.236V194.814H809.236H807.236V284.415H809.236ZM809.236 194.814V196.814H863.764V194.814V192.814H809.236V194.814ZM907.449 194.814L907.449 196.814C916.3 196.814 923.983 198.632 930.558 202.204L931.513 200.446L932.467 198.689C925.218 194.751 916.859 192.814 907.449 192.814L907.449 194.814ZM931.513 200.446L930.575 202.213C937.155 205.706 942.253 210.644 945.904 217.052L947.642 216.062L949.379 215.073C945.35 207.999 939.694 202.525 932.45 198.68L931.513 200.446ZM947.642 216.062L945.919 217.078C949.634 223.377 951.529 230.865 951.529 239.614L953.529 239.614L955.529 239.614C955.529 230.273 953.5 222.059 949.364 215.047L947.642 216.062ZM953.529 239.614H951.529C951.529 248.363 949.634 255.899 945.913 262.289L947.642 263.295L949.37 264.301C953.5 257.209 955.529 248.956 955.529 239.614H953.529ZM947.642 263.295L945.909 262.295C942.258 268.624 937.154 273.571 930.558 277.154L931.513 278.911L932.467 280.669C939.695 276.742 945.345 271.278 949.374 264.294L947.642 263.295ZM931.513 278.911L930.575 277.145C923.997 280.637 916.307 282.415 907.449 282.415L907.449 284.415L907.449 286.415C916.852 286.415 925.205 284.524 932.45 280.678L931.513 278.911ZM907.449 284.415V282.415H878.521V284.415V286.415H907.449V284.415ZM878.521 284.415H880.521V194.814H878.521H876.521V284.415H878.521ZM878.521 194.814V196.814H907.449V194.814V192.814H878.521V194.814ZM893.881 270.207V272.207H907.065V270.207V268.207H893.881V270.207ZM907.065 270.207L907.065 272.207C911.696 272.207 916.013 271.539 919.999 270.18L919.354 268.287L918.708 266.394C915.184 267.595 911.309 268.207 907.065 268.207L907.065 270.207ZM919.354 268.287L919.999 270.18C924.006 268.814 927.499 266.751 930.449 263.985L929.081 262.526L927.713 261.067C925.202 263.422 922.21 265.2 918.708 266.394L919.354 268.287ZM929.081 262.526L930.426 264.006C933.485 261.225 935.828 257.766 937.466 253.67L935.609 252.927L933.752 252.184C932.319 255.767 930.309 258.707 927.736 261.046L929.081 262.526ZM935.609 252.927L937.452 253.705C939.196 249.573 940.041 244.862 940.041 239.614H938.041H936.041C936.041 244.436 935.265 248.601 933.767 252.149L935.609 252.927ZM938.041 239.614L940.041 239.614C940.041 234.367 939.196 229.656 937.452 225.525L935.609 226.303L933.767 227.081C935.265 230.629 936.041 234.793 936.041 239.614L938.041 239.614ZM935.609 226.303L937.466 225.56C935.828 221.463 933.485 218.004 930.426 215.223L929.081 216.703L927.736 218.183C930.309 220.522 932.319 223.462 933.752 227.046L935.609 226.303ZM929.081 216.703L930.449 215.244C927.499 212.478 924.006 210.416 919.999 209.049L919.354 210.942L918.708 212.835C922.21 214.029 925.202 215.808 927.713 218.162L929.081 216.703ZM919.354 210.942L919.999 209.049C916.013 207.691 911.696 207.022 907.065 207.022L907.065 209.022L907.065 211.022C911.309 211.022 915.184 211.634 918.708 212.835L919.354 210.942ZM907.065 209.022V207.022H893.881V209.022V211.022H907.065V209.022ZM893.881 209.022H891.881V270.207H893.881H895.881V209.022H893.881ZM589.945 248.574V250.574H614.239V248.574V246.574H589.945V248.574ZM614.239 248.574L616.079 247.789L603.947 219.373L602.107 220.158L600.268 220.944L612.4 249.36L614.239 248.574ZM602.107 220.158L600.269 219.371L588.107 247.787L589.945 248.574L591.784 249.361L603.946 220.945L602.107 220.158ZM518.035 237.183V239.183H529.939V237.183V235.183H518.035V237.183ZM529.939 237.183L529.939 239.183C535.458 239.183 540.115 237.868 543.717 235.045L542.483 233.471L541.25 231.897C538.537 234.023 534.832 235.183 529.939 235.183L529.939 237.183ZM542.483 233.471L543.717 235.045C547.453 232.117 549.219 227.852 549.219 222.591L547.219 222.591L545.219 222.591C545.219 226.886 543.828 229.875 541.25 231.897L542.483 233.471ZM547.219 222.591H549.219C549.219 217.331 547.453 213.091 543.69 210.244L542.483 211.839L541.276 213.434C543.829 215.365 545.219 218.293 545.219 222.591H547.219ZM542.483 211.839L543.717 210.265C540.115 207.441 535.458 206.127 529.939 206.127L529.939 208.127L529.939 210.127C534.832 210.127 538.537 211.287 541.25 213.413L542.483 211.839ZM529.939 208.127V206.127H518.035V208.127V210.127H529.939V208.127ZM518.035 208.127H516.035V237.183H518.035H520.035V208.127H518.035Z" fill="url(#paint6_linear_2003_263)" fill-opacity="0.4"/>
<defs>
<linearGradient id="paint0_linear_2003_263" x1="68.5" y1="158" x2="68.5" y2="313" gradientUnits="userSpaceOnUse">
<stop stop-color="#FFD3D4"/>
<stop offset="1" stop-color="#FFB7D1"/>
</linearGradient>
<linearGradient id="paint1_linear_2003_263" x1="134.234" y1="247.062" x2="0" y2="247.062" gradientUnits="userSpaceOnUse">
<stop stop-color="#DEF4FF"/>
<stop offset="1" stop-color="#FFBDEE"/>
</linearGradient>
<linearGradient id="paint2_linear_2003_263" x1="68.5" y1="65" x2="68.5" y2="220" gradientUnits="userSpaceOnUse">
<stop stop-color="#FFD3D4"/>
<stop offset="1" stop-color="#FFB7D1"/>
</linearGradient>
<linearGradient id="paint3_linear_2003_263" x1="68.6914" y1="65.1397" x2="68.6914" y2="220" gradientUnits="userSpaceOnUse">
<stop stop-color="#DEF4FF"/>
<stop offset="1" stop-color="#FFBDEE"/>
</linearGradient>
<linearGradient id="paint4_linear_2003_263" x1="69.1172" y1="-4.99998" x2="69.1172" y2="128" gradientUnits="userSpaceOnUse">
<stop offset="0.0528846" stop-color="#FFEA00" stop-opacity="0.25"/>
<stop offset="0.673077" stop-color="#F86AEE"/>
<stop offset="0.990385" stop-color="#FFEAFF"/>
</linearGradient>
<linearGradient id="paint5_linear_2003_263" x1="541.887" y1="109.35" x2="541.887" y2="289.322" gradientUnits="userSpaceOnUse">
<stop stop-color="#FFD3D4"/>
<stop offset="1" stop-color="#FFB7D1"/>
</linearGradient>
<linearGradient id="paint6_linear_2003_263" x1="150.549" y1="198.208" x2="949.689" y2="198.208" gradientUnits="userSpaceOnUse">
<stop stop-color="#FFD7FF"/>
<stop offset="0.552885" stop-color="#FF8BF7"/>
<stop offset="1" stop-color="#FFF25E"/>
</linearGradient>
</defs>
</svg>
