<?xml version="1.0" encoding="utf-8"?>
<svg width="194px" height="194px" viewBox="-2.4 -2.4 28.80 28.80" fill="none" xmlns="http://www.w3.org/2000/svg" stroke="#ffd9ab" stroke-width="0.00024000000000000003">
  <g id="SVGRepo_bgCarrier" stroke-width="0">
    <path d="M 3.6 -2.4 L 20.4 -2.4 C 23.714 -2.4 26.4 0.286 26.4 3.6 L 26.4 20.4 C 26.4 23.714 23.714 26.4 20.4 26.4 L 3.6 26.4 C 0.286 26.4 -2.4 23.714 -2.4 20.4 L -2.4 3.6 C -2.4 0.286 0.286 -2.4 3.6 -2.4 Z M 4 4 C 2.343 4 1 5.343 1 7 L 1 17 C 1 18.657 2.343 20 4 20 L 20 20 C 21.657 20 23 18.657 23 17 L 23 7 C 23 5.343 21.657 4 20 4 Z M 12.62 11.237 C 12.256 11.524 11.744 11.524 11.38 11.237 L 4.747 6 L 19.253 6 Z M 10.141 12.807 C 11.231 13.667 12.769 13.667 13.859 12.807 L 21 7.169 L 21 17 C 21 17.552 20.552 18 20 18 L 4 18 C 3.448 18 3 17.552 3 17 L 3 7.169 Z" fill="#f0f8ff" strokewidth="0"/>
  </g>
  <g id="SVGRepo_tracerCarrier" stroke-linecap="round" stroke-linejoin="round"/>
  <g id="SVGRepo_iconCarrier"/>
</svg>